<svg width="135" height="28" viewBox="0 0 135 28" fill="none" xmlns="http://www.w3.org/2000/svg">
<g clip-path="url(#clip0_503_239)">
<path d="M41.9017 5.73164C35.6555 5.83089 31.7764 9.72633 31.7764 15.892V27.814H36.5974V15.8176C36.5974 12.468 38.4935 10.5451 41.9512 10.3838L42.732 10.3466V5.71924L41.9017 5.73164Z" fill="#3B3636"/>
<path d="M23.2871 2.85335C23.2871 4.25521 24.3034 5.75631 26.1871 5.75631C28.0709 5.75631 29.0872 4.26761 29.0872 2.85335C29.0872 1.42667 28.0957 0 26.1871 0C24.291 0 23.2871 1.43908 23.2871 2.85335Z" fill="#3B3636"/>
<path d="M23.6709 6.98438V27.8138H28.7521V6.98438H23.6709Z" fill="#3B3636"/>
<path d="M82.6133 2.85335C82.6133 4.25521 83.6295 5.75631 85.5133 5.75631C87.3971 5.75631 88.4133 4.26761 88.4133 2.85335C88.4133 1.42667 87.4219 0 85.5133 0C83.6047 0 82.6133 1.43908 82.6133 2.85335Z" fill="#3B3636"/>
<path d="M82.9609 6.98438V27.8138H88.0546V6.98438H82.9609Z" fill="#3B3636"/>
<path d="M106.644 1.12891V15.4204L106.632 17.4674C106.632 21.0279 104.29 23.5091 100.956 23.5091C97.6095 23.5091 95.2796 21.0279 95.2796 17.4674C95.2796 13.9069 97.6219 11.4258 100.956 11.4258C102.468 11.4258 103.806 11.9468 104.835 12.9269L105.554 13.6092V7.93972L105.306 7.82806C103.93 7.22018 102.48 6.91003 100.968 6.91003C95.0813 6.91003 90.4834 11.5374 90.4834 17.455C90.4834 23.3602 95.0937 28 100.968 28C106.867 28 111.502 23.3726 111.502 17.455V1.12891H106.644Z" fill="#3B3636"/>
<path d="M113.981 17.1326C113.981 23.0378 118.592 27.6775 124.466 27.6775C130.365 27.6775 135 23.0502 135 17.1326L134.827 14.8871L134.232 15.2965L130.105 17.9762L130.08 18.1623C129.659 21.1521 127.403 23.1618 124.479 23.1618C121.132 23.1618 118.79 20.6806 118.79 17.1202C118.79 13.5597 121.132 11.0785 124.479 11.0785C125.668 11.0785 126.734 11.4135 127.626 12.0214C126.672 12.6044 119.534 16.9961 119.534 16.9961V17.2442C119.571 18.7453 120.265 20.1224 121.455 21.0404L121.69 21.2141L134.344 13.4108L134.207 13.0635C132.584 9.11839 128.767 6.5752 124.491 6.5752C118.579 6.5876 113.981 11.2274 113.981 17.1326Z" fill="#3B3636"/>
<path d="M52.7826 6.76123C46.9949 6.76123 42.2979 11.4755 42.2979 17.2566C42.2979 23.0501 47.0073 27.7519 52.7826 27.7519C58.5578 27.7519 63.2673 23.0377 63.2673 17.2566C63.2673 11.4755 58.5578 6.76123 52.7826 6.76123ZM52.7826 23.2238C49.4983 23.2238 46.8214 20.5441 46.8214 17.2566C46.8214 13.969 49.4983 11.2894 52.7826 11.2894C56.0668 11.2894 58.7437 13.969 58.7437 17.2566C58.7313 20.5441 56.0668 23.2238 52.7826 23.2238Z" fill="#3B3636"/>
<path d="M75.7103 6.76123C69.9226 6.76123 65.2256 11.4755 65.2256 17.2566C65.2256 23.0501 69.935 27.7519 75.7103 27.7519L79.8373 27.7891V23.2238H75.7103C72.4261 23.2238 69.7491 20.5441 69.7491 17.2566C69.7491 13.969 72.4261 11.2894 75.7103 11.2894L79.8868 11.277V6.76123H75.7103Z" fill="#3B3636"/>
<path d="M0 17.4549C0 23.3601 4.6103 27.9999 10.4847 27.9999C11.9967 27.9999 13.4591 27.6898 14.8224 27.0819L15.0702 26.9702V21.3256L14.3514 22.0079C13.3228 22.9879 11.9843 23.509 10.4723 23.509C7.12614 23.509 4.78381 21.0278 4.78381 17.4673C4.78381 13.9069 7.12614 11.4257 10.4723 11.4257C13.8185 11.4257 16.1484 13.9069 16.1484 17.4673L16.1608 19.5143V27.7642H20.9942V17.4673C20.9942 11.5621 16.3715 6.92236 10.4599 6.92236C4.6103 6.92236 0 11.5497 0 17.4549Z" fill="#3B3636"/>
</g>
<defs>
<clipPath id="clip0_503_239">
<rect width="135" height="28" fill="white"/>
</clipPath>
</defs>
</svg>
